<?xml version="1.0" encoding="iso-8859-1"?>
<!-- Generator: Adobe Illustrator 19.0.0, SVG Export Plug-In . SVG Version: 6.00 Build 0)  -->
<svg version="1.1" id="Layer_1" xmlns="http://www.w3.org/2000/svg" xmlns:xlink="http://www.w3.org/1999/xlink" x="0px" y="0px"
	 viewBox="0 0 511.998 511.998" style="enable-background:new 0 0 511.998 511.998;" xml:space="preserve">
<path style="fill:#F2F2F2;" d="M320.731,416.389H204.002c0-14.192,5.063-27.192,13.47-37.306
	c13.149,7.8,28.498,12.279,44.889,12.279s31.739-4.479,44.889-12.267C315.668,389.209,320.731,402.209,320.731,416.389z"/>
<path style="fill:#CCCCCC;" d="M503.413,157.148l-31.911,19.472h-43.136h-15.749c-1.294-12.748-4.158-25.027-8.384-36.653h23.687
	h44.03L503.413,157.148z"/>
<path style="fill:#E8B995;" d="M413.406,234.899c19.884,5.887,34.408,24.306,34.408,46.103c0,21.866-14.604,40.319-34.58,46.16
	c0.115-2.44,0.172-4.891,0.172-7.354v-38.795V234.899z"/>
<path style="fill:#FFD3AE;" d="M287.296,260.888l69.698,23.733c12.015,4.101,24.111-6.494,21.305-18.888
	c-3.516-15.509-14.764-28.899-30.926-34.397C322.621,222.906,295.726,236.136,287.296,260.888z M237.436,260.888
	c-8.43-24.752-35.336-37.982-60.088-29.552c-16.162,5.498-27.41,18.888-30.926,34.397c-2.806,12.393,9.289,22.988,21.316,18.888
	L237.436,260.888z M413.234,327.162c-2.337,49.287-28.063,92.446-66.319,118.642c-0.332,0.241-0.676,0.458-0.996,0.687
	c-24.317,16.357-53.594,25.909-85.116,25.909s-60.799-9.553-85.104-25.909c-0.332-0.229-0.676-0.447-1.008-0.687
	c-38.245-26.196-63.983-69.355-66.319-118.642c-0.115-2.44-0.172-4.891-0.172-7.354v-38.795v-46.114v-42.69
	c0-5.269,0.263-10.469,0.79-15.589h5.532h43.136c1.237-5.968,1.913-12.554,1.913-19.472c0-6.048-0.515-11.832-1.466-17.181h-40.731
	c21.339-58.554,77.499-100.361,143.429-100.361c42.14,0,80.294,17.078,107.909,44.694c15.589,15.589,27.822,34.534,35.519,55.667
	c4.227,11.626,7.09,23.905,8.384,36.653c0.527,5.12,0.79,10.32,0.79,15.589v42.69v46.114v38.795
	C413.406,322.271,413.349,324.722,413.234,327.162z M307.249,379.095c-10.698-12.874-26.837-21.064-44.889-21.064
	c-18.04,0-34.179,8.19-44.889,21.053c-8.407,10.114-13.47,23.114-13.47,37.306h116.729
	C320.731,402.209,315.668,389.209,307.249,379.095z"/>
<path style="fill:#E8B995;" d="M206.762,445.804c-38.245-26.196-63.983-69.355-66.319-118.642c-0.115-2.44-0.172-4.891-0.172-7.354
	V192.209c0-5.269,0.263-10.469,0.79-15.589l8.384-36.653c19.587-53.743,68.507-93.386,127.404-99.525
	c-5.28-0.55-10.629-0.836-16.047-0.836c-65.93,0-122.09,41.808-143.429,100.361l-8.384,36.653c-0.527,5.12-0.79,10.32-0.79,15.589
	v127.599c0,2.463,0.057,4.914,0.172,7.354c2.337,49.287,28.074,92.446,66.319,118.642c0.332,0.241,0.676,0.458,1.008,0.687
	c24.306,16.357,53.582,25.909,85.104,25.909c5.418,0,10.767-0.286,16.036-0.836c-25.394-2.646-48.944-11.523-69.068-25.073
	C207.438,446.262,207.094,446.044,206.762,445.804z"/>
<path style="fill:#F2F2F2;" d="M378.299,265.733c2.806,12.393-9.289,22.988-21.305,18.888l-69.698-23.733
	c8.43-24.752,35.325-37.982,60.077-29.552C363.535,236.834,374.783,250.224,378.299,265.733z"/>
<path style="fill:#F95428;" d="M262.36,358.031c18.052,0,34.191,8.19,44.889,21.064c-13.149,7.789-28.498,12.267-44.889,12.267
	s-31.739-4.479-44.889-12.279C228.181,366.22,244.32,358.031,262.36,358.031z"/>
<path style="fill:#F2F2F2;" d="M237.436,260.888l-69.698,23.733c-12.027,4.101-24.122-6.494-21.316-18.888
	c3.516-15.509,14.764-28.899,30.926-34.397C202.1,222.906,229.006,236.136,237.436,260.888z"/>
<path style="fill:#CCCCCC;" d="M158.105,139.967c0.951,5.349,1.466,11.133,1.466,17.181c0,6.918-0.676,13.504-1.913,19.472h-43.136
	h-5.532H53.643c1.226-5.968,1.913-12.554,1.913-19.472c0-6.036-0.515-11.832-1.478-17.181h59.997h3.299
	C117.374,139.967,158.105,139.967,158.105,139.967z"/>
<path style="fill:#B3B3B3;" d="M158.105,139.967h-27.49c0.951,5.349,1.466,11.133,1.466,17.181c0,6.918-0.676,13.504-1.913,19.472
	h27.49c1.237-5.968,1.913-12.554,1.913-19.472C159.571,151.1,159.056,145.316,158.105,139.967z"/>
<path style="fill:#E8B995;" d="M108.199,319.808c0,2.463,0.057,4.914,0.172,7.354c-19.987-5.83-34.591-24.294-34.591-46.16
	c0-21.797,14.524-40.227,34.42-46.103v46.114V319.808z"/>
<path style="fill:#999999;" d="M54.078,139.967c0.962,5.349,1.478,11.145,1.478,17.181c0,6.918-0.687,13.504-1.913,19.472
	c-3.597,17.513-11.901,29.781-21.568,29.781c-12.978,0-23.481-22.061-23.481-49.253c0-27.204,10.503-49.253,23.481-49.253
	C42.166,107.895,50.768,121.239,54.078,139.967z"/>
<path style="fill:#FFFFFF;" d="M385.26,188.025c-4.354,0-8.087-3.298-8.536-7.724c-0.972-9.573-3.126-18.997-6.402-28.007
	c-5.755-15.802-15.134-30.494-27.123-42.482c-15.866-15.866-35.709-26.743-57.385-31.455c-4.637-1.008-7.578-5.584-6.569-10.219
	c1.008-4.637,5.583-7.578,10.219-6.569c24.901,5.413,47.684,17.896,65.884,36.095c13.75,13.75,24.511,30.609,31.12,48.756
	c3.763,10.349,6.234,21.163,7.349,32.147c0.479,4.72-2.959,8.935-7.679,9.414C385.843,188.01,385.55,188.025,385.26,188.025z
	 M260.814,75.686c-4.744,0-8.596-3.846-8.596-8.591s3.841-8.591,8.585-8.591h0.011c4.745,0,8.591,3.846,8.591,8.591
	S265.558,75.686,260.814,75.686z"/>
<g>
	<path style="fill:#333333;" d="M507.526,149.604l-31.465-17.181c-1.262-0.69-2.678-1.05-4.117-1.05h-61.784
		c-8.001-19.652-19.922-37.697-35.377-53.151C344.34,47.778,303.86,31.012,260.8,31.012c-65.483,0-124.728,40.086-149.315,100.361
		H61.01c-5.074-19.331-15.854-32.072-28.939-32.072C13.788,99.301,0,124.168,0,157.145s13.788,57.843,32.072,57.843
		c12.562,0,23.001-11.739,28.305-29.781h39.388c-0.1,2.326-0.16,4.661-0.16,6.998v36.68c-20.548,8.808-34.415,29.383-34.415,52.117
		c0,22.97,14.124,43.692,34.999,52.36c4.046,47.986,29.394,91.924,69.567,119.471c0.258,0.183,0.518,0.358,0.778,0.533l0.364,0.246
		c26.61,17.907,57.698,27.373,89.9,27.373c32.196,0,63.288-9.465,89.91-27.372c0.069-0.047,0.136-0.094,0.204-0.142l0.275-0.188
		c0.218-0.148,0.438-0.297,0.655-0.452c40.17-27.541,65.521-71.482,69.566-119.472c20.873-8.671,34.995-29.39,34.995-52.358
		c0-22.732-13.865-43.306-34.411-52.116v-36.682c0-2.341-0.058-4.673-0.158-6.998h49.662c1.578,0,3.127-0.435,4.475-1.258
		l31.911-19.472c2.62-1.599,4.187-4.472,4.113-7.54C511.924,153.87,510.219,151.074,507.526,149.604z M32.072,197.806
		c-5.249,0-14.89-15.438-14.89-40.662s9.641-40.662,14.89-40.662c5.249,0,14.89,15.438,14.89,40.662S37.321,197.806,32.072,197.806z
		 M63.818,148.553h86.772c0.257,2.805,0.386,5.677,0.386,8.591c0,3.728-0.211,7.367-0.627,10.881H63.615
		c0.341-3.508,0.528-7.139,0.528-10.881C64.143,154.211,64.029,151.345,63.818,148.553z M82.371,281.002
		c0-13.204,6.713-25.361,17.234-32.598v65.2C89.081,306.369,82.371,294.22,82.371,281.002z M404.812,319.804
		c0,47.55-23.459,92.001-62.755,118.908c-0.062,0.042-0.123,0.086-0.184,0.129c-0.1,0.072-0.202,0.14-0.301,0.207
		c-0.182,0.123-0.361,0.244-0.536,0.368c-23.759,15.956-51.504,24.389-80.236,24.389c-28.773,0-56.543-8.453-80.225-24.388
		l-0.498-0.337c-0.118-0.078-0.237-0.156-0.352-0.238c-0.061-0.044-0.121-0.087-0.183-0.128
		c-39.296-26.915-62.755-71.366-62.755-118.909V192.206c0-2.339,0.061-4.677,0.172-6.998h40.697c4.072,0,7.585-2.859,8.412-6.847
		c1.388-6.695,2.092-13.833,2.092-21.215c0-6.432-0.538-12.718-1.599-18.684c-0.728-4.101-4.294-7.088-8.458-7.088h-27.856
		c23.452-50.217,74.432-83.18,130.554-83.18c38.47,0,74.636,14.98,101.835,42.178c27.199,27.199,42.178,63.364,42.178,101.835
		V319.804z M439.223,281.002c0,13.217-6.708,25.364-17.229,32.598v-65.193C432.512,255.644,439.223,267.8,439.223,281.002z
		 M469.084,168.025h-48.883c-0.987-6.6-2.379-13.1-4.159-19.472h53.711l16.488,9.003L469.084,168.025z"/>
	<path style="fill:#333333;" d="M350.142,223.201c-14.145-4.818-29.316-3.839-42.722,2.756
		c-13.407,6.594-23.443,18.015-28.26,32.157c-0.017,0.052-0.458,62.55-0.458,62.55c0,1.731-1.408,3.138-3.138,3.138h-26.401
		c-1.731,0-3.138-1.408-3.138-3.138c0,0-0.441-62.497-0.458-62.55c-4.818-14.142-14.854-25.563-28.261-32.158
		c-13.406-6.594-28.58-7.571-42.721-2.756c-18.548,6.318-32.206,21.51-36.535,40.639c-1.998,8.821,0.848,17.72,7.609,23.803
		c4.682,4.212,10.695,6.445,16.801,6.445c2.7,0,5.418-0.436,8.047-1.332l34.717-11.825l-22.491,22.479
		c-3.356,3.354-3.357,8.793-0.003,12.148c3.353,3.356,8.792,3.357,12.148,0.003l33.966-33.947v39.049
		c0,11.204,9.115,20.32,20.32,20.32h26.401c11.204,0,20.32-9.115,20.32-20.32v-39.049l33.966,33.947
		c3.355,3.354,8.795,3.351,12.148-0.003c3.354-3.356,3.353-8.796-0.003-12.148l-22.491-22.479l34.716,11.825
		c2.629,0.896,5.347,1.332,8.048,1.332c6.105,0,12.118-2.234,16.8-6.444c6.763-6.083,9.608-14.982,7.61-23.803
		C382.346,244.709,368.688,229.518,350.142,223.201z M164.964,276.491c-2.732,0.931-5.654,0.323-7.817-1.623
		c-0.994-0.895-3.214-3.39-2.342-7.236c3.002-13.262,12.467-23.791,25.318-28.169c4.099-1.396,8.321-2.09,12.529-2.09
		c5.85,0,11.667,1.341,17.07,3.999c6.662,3.277,12.123,8.274,15.911,14.454L164.964,276.491z M367.576,274.869
		c-2.163,1.946-5.086,2.554-7.816,1.622l-60.667-20.664c3.787-6.18,9.248-11.177,15.911-14.454
		c9.288-4.569,19.801-5.247,29.599-1.909c12.85,4.377,22.315,14.908,25.318,28.169C370.79,271.477,368.571,273.974,367.576,274.869z
		"/>
	<path style="fill:#333333;" d="M262.362,349.434c-36.918,0-66.954,30.035-66.954,66.954c0,4.744,3.846,8.591,8.591,8.591h116.728
		c4.744,0,8.591-3.846,8.591-8.591C329.316,379.469,299.281,349.434,262.362,349.434z M292.526,376.83
		c-9.521,3.898-19.769,5.937-30.169,5.937c-10.396,0-20.642-2.039-30.16-5.937c8.376-6.402,18.832-10.215,30.164-10.215
		C273.694,366.616,284.151,370.429,292.526,376.83z M213.331,407.798c1.11-6.359,3.44-12.302,6.725-17.59
		c13.12,6.383,27.59,9.741,42.301,9.741c14.717,0,29.19-3.357,42.31-9.741c3.285,5.29,5.615,11.232,6.725,17.59H213.331z"/>
	<path style="fill:#333333;" d="M297.488,194.844c-4.41,1.751-6.564,6.745-4.814,11.154c1.75,4.409,6.744,6.564,11.154,4.814
		c22.78-9.044,48.948-7.027,70.001,5.396c1.371,0.81,2.874,1.194,4.358,1.194c2.939,0,5.804-1.511,7.406-4.225
		c2.411-4.086,1.054-9.353-3.032-11.765C356.968,186.31,325.166,183.856,297.488,194.844z"/>
	<path style="fill:#333333;" d="M147.769,216.209c21.055-12.422,47.224-14.44,70.002-5.396c4.409,1.748,9.403-0.404,11.154-4.814
		c1.75-4.41-0.405-9.404-4.814-11.154c-27.678-10.989-59.481-8.533-85.073,6.569c-4.086,2.411-5.444,7.678-3.032,11.765
		c1.602,2.716,4.466,4.225,7.406,4.225C144.895,217.402,146.399,217.018,147.769,216.209z"/>
</g>
<g>
</g>
<g>
</g>
<g>
</g>
<g>
</g>
<g>
</g>
<g>
</g>
<g>
</g>
<g>
</g>
<g>
</g>
<g>
</g>
<g>
</g>
<g>
</g>
<g>
</g>
<g>
</g>
<g>
</g>
</svg>
